<?xml version="1.0" standalone="no"?>
<!DOCTYPE svg PUBLIC "-//W3C//DTD SVG 20010904//EN"
 "http://www.w3.org/TR/2001/REC-SVG-20010904/DTD/svg10.dtd">
<svg version="1.0" xmlns="http://www.w3.org/2000/svg"
 width="1300.000000pt" height="1300.000000pt" viewBox="0 0 1300.000000 1300.000000"
 preserveAspectRatio="xMidYMid meet">

<g transform="translate(0.000000,1300.000000) scale(0.100000,-0.100000)"
fill="#000000" stroke="none">
<path d="M1189 11191 c-133 -66 -194 -192 -156 -322 20 -66 54 -115 109 -151
54 -37 77 -42 308 -73 175 -24 481 -67 797 -112 110 -15 112 -16 123 -47 7
-17 25 -62 41 -101 15 -38 54 -135 85 -215 31 -80 90 -230 131 -335 41 -104
90 -228 108 -275 18 -47 81 -204 138 -350 58 -146 126 -319 152 -385 25 -66
50 -129 55 -140 5 -11 33 -83 64 -160 122 -312 190 -487 241 -615 29 -74 88
-223 129 -330 42 -107 90 -226 106 -265 17 -38 30 -76 30 -83 0 -7 5 -10 12
-6 7 4 8 3 4 -4 -4 -6 7 -44 23 -84 16 -40 60 -149 96 -243 37 -93 95 -242
130 -330 35 -88 97 -245 138 -350 41 -104 101 -255 132 -335 31 -80 90 -228
130 -330 75 -190 154 -389 186 -471 l18 -46 -217 -196 c-119 -107 -228 -205
-242 -219 -14 -13 -63 -57 -110 -98 -184 -161 -354 -326 -395 -384 -219 -310
-210 -708 22 -993 55 -67 173 -158 261 -200 l77 -37 -85 -43 c-286 -142 -396
-458 -262 -753 36 -77 161 -210 239 -252 122 -65 287 -87 413 -53 192 51 344
199 411 400 20 61 17 248 -5 315 -38 113 -108 216 -192 281 -30 23 -54 43 -54
45 0 2 1074 4 2388 4 2365 0 2387 0 2358 -20 -95 -62 -187 -185 -227 -303 -32
-94 -30 -258 4 -349 88 -240 293 -388 536 -388 145 0 249 38 369 132 89 71
155 177 188 303 18 66 18 197 0 266 -32 123 -120 251 -226 332 l-35 27 205 1
c113 1 211 1 218 0 35 -5 111 33 156 77 64 62 86 110 86 192 0 108 -59 202
-155 246 l-50 24 -2995 0 c-3192 0 -3050 -2 -3138 44 -107 56 -154 214 -98
331 25 53 84 115 276 286 63 56 140 125 170 153 31 28 98 89 150 136 109 98
208 188 230 210 69 69 86 78 172 84 45 4 243 23 438 42 874 84 1097 106 1440
139 201 19 487 47 635 61 149 14 430 41 625 60 195 19 402 39 460 44 58 5 220
21 360 35 140 13 419 40 620 60 201 19 487 47 635 61 149 14 293 32 321 40 59
17 129 78 157 136 15 31 58 320 82 548 6 54 45 369 106 855 17 132 34 277 39
322 5 46 23 194 40 330 48 386 97 778 125 1013 14 118 34 286 45 372 27 215
26 242 -11 317 -30 61 -61 91 -129 127 -34 18 -141 19 -3605 21 -1963 2 -3643
3 -3733 3 -146 0 -163 2 -168 18 -3 9 -16 44 -29 77 -47 119 -166 420 -174
440 -5 11 -20 49 -34 85 -14 36 -50 128 -80 205 -31 77 -67 171 -81 209 -15
38 -30 74 -35 80 -4 6 -11 25 -15 41 -4 17 -23 66 -41 110 -18 44 -50 123 -70
175 -97 250 -130 305 -207 346 -32 17 -155 37 -568 94 -162 23 -401 56 -530
75 -267 40 -339 42 -391 16z m2861 -2986 c0 -261 -2 -475 -4 -475 -7 0 -73
165 -270 670 -42 107 -83 210 -91 228 -8 18 -15 37 -15 42 0 6 74 10 190 10
l190 0 0 -475z m1080 -15 l0 -490 -435 0 -435 0 0 490 0 490 435 0 435 0 0
-490z m1080 0 l0 -490 -430 0 -430 0 0 490 0 490 430 0 430 0 0 -490z m1090 0
l0 -490 -435 0 -435 0 0 490 0 490 435 0 435 0 0 -490z m1080 0 l0 -490 -435
0 -435 0 0 490 0 490 435 0 435 0 0 -490z m1080 0 l0 -490 -429 0 -428 0 -5
188 c-3 103 -3 323 0 490 l5 302 428 0 429 0 0 -490z m1070 468 c0 -13 -11
-115 -25 -228 -61 -495 -86 -686 -90 -707 l-5 -23 -365 0 -365 0 0 490 0 490
425 0 425 0 0 -22z m-4320 -1511 c0 -253 3 -336 13 -346 10 -11 10 -13 0 -7
-10 6 -13 -26 -13 -143 l0 -151 -430 0 -430 0 0 490 0 489 93 3 c50 2 244 2
430 0 l337 -3 0 -332z m3252 165 c2 -92 2 -312 0 -489 l-3 -323 -429 0 -430 0
0 490 0 490 258 2 c141 2 335 2 429 0 l173 -3 2 -167z m-4332 -322 l0 -490
-303 0 -303 0 -10 28 c-6 15 -66 165 -133 335 l-121 307 0 155 0 155 435 0
435 0 0 -490z m2170 0 l0 -490 -385 -1 c-212 -1 -392 -1 -400 -1 -8 0 -31 0
-50 1 l-35 1 0 490 0 490 435 0 435 0 0 -490z m1080 0 l0 -490 -435 0 -435 0
0 490 0 490 435 0 435 0 0 -490z m2006 468 c-3 -13 -15 -102 -26 -198 -11 -96
-27 -228 -36 -292 -8 -64 -23 -194 -34 -289 -10 -94 -21 -173 -24 -176 -4 -4
-30 -5 -368 -4 l-218 1 0 490 0 490 355 0 355 0 -4 -22z m-3086 -1616 l0 -438
-182 -18 c-101 -9 -275 -26 -388 -36 -113 -11 -226 -23 -252 -26 l-48 -6 0
481 0 480 153 3 c83 2 279 2 435 0 l282 -3 0 -437z m-2170 -107 l0 -545 -44 0
-43 0 -31 73 c-17 39 -61 149 -97 242 -37 94 -87 222 -112 285 -25 63 -69 176
-98 250 -29 74 -62 159 -74 188 l-21 52 260 0 260 0 0 -545z m1080 509 c0 -25
4 -33 13 -28 10 6 10 4 0 -7 -10 -10 -13 -116 -13 -460 l0 -447 -47 -6 c-61
-8 -622 -63 -730 -72 l-83 -7 0 532 0 531 430 0 430 0 0 -36z m80 33 c0 -2
-10 -12 -22 -23 l-23 -19 19 23 c18 21 26 27 26 19z m2090 -381 l0 -385 -42
-6 c-64 -8 -629 -63 -735 -71 l-93 -7 0 427 0 426 435 0 435 0 0 -384z m1082
112 c2 -150 2 -301 0 -334 l-3 -62 -62 -7 c-78 -9 -111 -12 -272 -25 -71 -6
-215 -20 -320 -31 -104 -10 -193 -19 -197 -19 -4 0 -8 169 -8 375 l0 375 430
0 429 0 3 -272z m778 270 c-3 -40 -72 -592 -75 -595 0 -2 -91 -12 -201 -23
-109 -11 -218 -22 -241 -25 l-43 -6 0 325 0 326 280 0 c154 0 280 -1 280 -2z
m-3450 -3241 c0 -2 -10 -12 -22 -23 l-23 -19 19 23 c18 21 26 27 26 19z
m-2583 -412 c65 -32 99 -66 138 -136 26 -47 30 -64 30 -134 0 -59 -5 -89 -19
-115 -61 -115 -161 -180 -276 -180 -54 0 -78 6 -128 30 -112 57 -166 145 -165
270 1 107 40 183 125 240 94 65 196 73 295 25z m5370 -5 c72 -36 115 -83 144
-159 42 -114 18 -222 -72 -312 -97 -97 -216 -118 -336 -59 -105 52 -164 145
-164 261 -1 76 16 130 54 180 96 124 235 157 374 89z"/>
<path d="M4015 2493 c-47 -24 -78 -69 -83 -122 -14 -145 162 -224 257 -116 17
20 34 47 37 61 31 123 -101 234 -211 177z"/>
<path d="M9390 2499 c-81 -33 -120 -123 -86 -202 64 -150 288 -105 288 58 0
106 -107 182 -202 144z"/>
</g>
</svg>
